<svg height="496pt" viewBox="0 0 496 496" width="496pt" xmlns="http://www.w3.org/2000/svg"><path d="m488 0h-480c-4.425781 0-8 3.585938-8 8v352c0 4.425781 3.574219 8 8 8h182.238281l-12.796875 64h-41.441406c-13.230469 0-24 10.769531-24 24v32c0 4.425781 3.574219 8 8 8h256c4.425781 0 8-3.574219 8-8v-32c0-13.230469-10.769531-24-24-24h-41.441406l-12.796875-64h182.238281c4.425781 0 8-3.574219 8-8v-352c0-4.414062-3.574219-8-8-8zm-120 456v24h-240v-24c0-4.414062 3.585938-8 8-8h224c4.414062 0 8 3.585938 8 8zm-65.761719-24h-108.476562l12.796875-64h82.890625zm177.761719-80h-464v-336h464zm0 0"/><path d="m112 184c0 4.414062 3.574219 8 8 8h32c4.425781 0 8-3.585938 8-8 0-48.519531 39.480469-88 88-88 22.601562 0 44.214844 8.769531 60.496094 24.191406l-10.152344 10.152344c-2.0625 2.0625-2.839844 5.089844-2.023438 7.894531.816407 2.800781 3.09375 4.9375 5.945313 5.570313l72 16c.574219.128906 1.160156.191406 1.734375.191406 2.105469 0 4.144531-.832031 5.65625-2.34375 1.9375-1.9375 2.75-4.71875 2.160156-7.390625l-16-72c-.632812-2.851563-2.777344-5.128906-5.578125-5.945313-2.796875-.816406-5.832031-.046874-7.886719 2.023438l-11.96875 11.96875c-25.472656-24.664062-58.6875-38.3125-94.382812-38.3125-74.992188 0-136 61.007812-136 136zm243.351562-88.039062 10.113282 45.503906-45.503906-10.113282zm-107.351562-31.960938c31.40625 0 60.625 11.976562 83.078125 33.609375l-11.277344 11.277344c-19.28125-18.40625-44.945312-28.886719-71.800781-28.886719-54.65625 0-99.59375 42.375-103.695312 96h-16.039063c4.132813-62.449219 56.253906-112 119.734375-112zm0 0"/><path d="m384 184c0-4.414062-3.574219-8-8-8h-32c-4.425781 0-8 3.585938-8 8 0 48.519531-39.480469 88-88 88-22.601562 0-44.214844-8.769531-60.496094-24.191406l10.152344-10.152344c2.0625-2.0625 2.839844-5.089844 2.023438-7.894531-.816407-2.800781-3.09375-4.9375-5.945313-5.570313l-72-16c-2.679687-.589844-5.460937.214844-7.390625 2.152344-1.9375 1.9375-2.75 4.71875-2.160156 7.390625l16 72c.632812 2.851563 2.777344 5.136719 5.578125 5.945313.734375.214843 1.484375.320312 2.238281.320312 2.097656 0 4.136719-.824219 5.65625-2.34375l11.96875-11.96875c25.464844 24.664062 58.679688 38.3125 94.375 38.3125 74.992188 0 136-61.007812 136-136zm-243.351562 88.039062-10.113282-45.503906 45.503906 10.113282zm107.351562 31.960938c-31.40625 0-60.625-11.976562-83.078125-33.609375l11.277344-11.277344c19.28125 18.40625 44.945312 28.886719 71.800781 28.886719 54.65625 0 99.59375-42.375 103.695312-96h16.039063c-4.132813 62.449219-56.253906 112-119.734375 112zm0 0"/><path d="m448 320h-112v16h120c4.425781 0 8-3.574219 8-8v-288c0-4.414062-3.574219-8-8-8h-120v16h112zm0 0"/><path d="m40 336h120v-16h-112v-272h112v-16h-120c-4.425781 0-8 3.585938-8 8v288c0 4.425781 3.574219 8 8 8zm0 0"/></svg>